# xmcd
#
# Track frame offsets: 
#        150
#        14675
#        28630
#        41539
#        59439
#        75486
#        88999
#        103531
#        118034
#        131936
#        148242
#
# Disc length: 2134 seconds
#
# Revision: 1
# Processed by: cddbd v1.5.2PL0 Copyright (c) Steve Scherf et al.
# Submitted via: ExactAudioCopyFreeDBPlugin 1.0
#
DISCID=9c08540b
DTITLE=Boyzone - Dublin to Detroit
DYEAR=2014
DGENRE=Soul
TTITLE0=What Becomes Of The Broken Hearted
TTITLE1=Tracks Of My Tears
TTITLE2=You Can't Hurry Love
TTITLE3=This Old Heart Of Mine
TTITLE4=Just My Imagination
TTITLE5=Higher And Higher
TTITLE6=I'm Doing Fine Now
TTITLE7=Reach Out (I'll Be There)
TTITLE8=The Tears of A Clown
TTITLE9=Wherever I Lay My Hat
TTITLE10=What Christmas Means To Me
EXTD=
EXTT0=
EXTT1=
EXTT2=
EXTT3=
EXTT4=
EXTT5=
EXTT6=
EXTT7=
EXTT8=
EXTT9=
EXTT10=
PLAYORDER=
